<?xml version="1.0" standalone="no"?>
<!DOCTYPE svg PUBLIC "-//W3C//DTD SVG 20010904//EN"
 "http://www.w3.org/TR/2001/REC-SVG-20010904/DTD/svg10.dtd">
<svg version="1.0" xmlns="http://www.w3.org/2000/svg"
 width="928.000000pt" height="928.000000pt" viewBox="0 0 928.000000 928.000000"
 preserveAspectRatio="xMidYMid meet">
<metadata>
Created by potrace 1.11, written by Peter Selinger 2001-2013
</metadata>
<g transform="translate(0.000000,928.000000) scale(0.100000,-0.100000)"
fill="#000000" stroke="none">
<path d="M3240 8791 c-762 -268 -1747 -615 -2190 -770 -443 -156 -806 -284
-808 -286 -2 -1 4 -58 12 -126 16 -122 50 -416 201 -1709 41 -355 84 -719 95
-810 11 -91 36 -302 55 -470 55 -475 163 -1393 190 -1620 13 -113 43 -367 65
-565 23 -198 43 -369 45 -380 4 -15 476 -277 1857 -1030 1019 -555 1862 -1010
1873 -1010 14 0 3696 1998 3723 2021 2 1 26 191 53 421 27 230 60 513 74 628
14 116 45 386 70 600 25 215 65 561 90 770 25 209 78 670 120 1025 41 355 84
719 95 810 11 91 36 300 55 465 19 165 52 453 74 640 22 186 39 340 38 341 -1
1 -310 110 -687 242 -377 133 -1337 470 -2135 750 -797 281 -1477 520 -1510
531 -32 12 -62 21 -65 20 -3 0 -628 -220 -1390 -488z m2455 -94 c572 -201
1504 -528 2070 -727 567 -199 1033 -365 1038 -369 4 -4 -15 -200 -43 -437 -28
-236 -66 -564 -85 -729 -20 -165 -44 -374 -55 -465 -11 -91 -40 -340 -65 -555
-25 -214 -54 -464 -65 -555 -11 -91 -49 -417 -85 -725 -116 -998 -135 -1157
-160 -1365 -13 -113 -34 -293 -46 -400 -12 -107 -27 -200 -33 -207 -8 -9
-2245 -1233 -3405 -1864 l-125 -67 -35 18 c-139 71 -3488 1904 -3497 1913 -6
7 -30 174 -53 372 -40 345 -71 612 -215 1845 -118 1002 -196 1668 -252 2145
-30 259 -70 605 -90 769 -19 164 -32 302 -27 306 4 5 490 177 1078 384 589
207 1522 535 2075 730 553 195 1012 353 1020 352 8 -2 483 -168 1055 -369z"/>
<path d="M1730 7300 l0 -100 765 0 c421 0 765 3 765 8 0 4 -24 48 -53 97 l-53
90 -712 3 -712 2 0 -100z"/>
<path d="M1910 6770 l0 -230 -90 0 -90 0 0 -100 0 -100 1250 0 c688 0 1250 3
1250 8 0 4 -24 48 -53 97 l-53 90 -258 5 -259 5 -132 225 -132 225 -111 3
c-62 1 -112 0 -112 -3 0 -3 47 -86 103 -183 57 -97 116 -198 131 -224 l28 -48
-636 0 -636 0 0 230 0 230 -100 0 -100 0 0 -230z"/>
<path d="M1910 5915 l0 -235 -90 0 -90 0 0 -100 0 -100 1735 0 1736 0 -27 48
c-15 26 -43 71 -61 100 l-33 52 -254 0 -254 0 -137 235 -137 235 -114 0 -114
0 52 -87 c28 -49 88 -152 134 -230 46 -78 84 -144 84 -147 0 -4 -199 -6 -441
-6 l-441 0 4 105 c3 99 5 107 31 132 36 37 95 38 131 4 14 -14 26 -33 26 -43
0 -23 29 -30 120 -26 74 3 75 4 78 31 4 32 -34 119 -71 162 -14 17 -49 44 -79
60 -47 27 -62 30 -138 30 -68 0 -93 -5 -126 -22 -67 -36 -101 -70 -133 -135
-29 -58 -31 -68 -31 -180 l0 -118 -350 0 -350 0 0 101 c0 111 7 132 51 155 52
27 115 -3 134 -63 6 -22 11 -23 102 -23 l96 0 -6 51 c-11 87 -68 164 -157 211
-37 19 -60 23 -130 23 -97 0 -143 -19 -206 -82 -62 -64 -78 -111 -82 -250 l-4
-123 -129 0 -129 0 0 235 0 235 -100 0 -100 0 0 -235z"/>
<path d="M5330 5669 c0 -6 23 -51 52 -100 l52 -89 1088 0 1089 0 -3 98 -3 97
-1137 3 c-808 1 -1138 -1 -1138 -9z"/>
<path d="M2580 5281 c-79 -25 -150 -87 -183 -161 -17 -35 -22 -73 -27 -175
l-5 -130 -125 0 -125 0 -3 233 -2 232 -100 0 -100 0 -2 -232 -3 -233 -87 -3
-88 -3 0 -94 0 -95 2170 0 c1290 0 2170 4 2170 9 0 5 -23 48 -51 95 l-50 86
-218 0 -219 0 -138 238 -139 237 -112 3 c-62 1 -113 1 -113 -2 0 -3 60 -107
134 -233 74 -125 131 -231 127 -236 -4 -4 -214 -6 -467 -5 l-459 3 -3 98 c-4
137 24 187 104 187 28 0 84 -49 84 -74 0 -14 16 -16 100 -16 112 0 109 -3 85
77 -35 118 -148 203 -270 203 -115 0 -206 -51 -263 -148 -25 -44 -27 -57 -32
-187 l-5 -140 -350 0 -350 0 0 113 0 114 33 29 c20 18 43 29 61 29 35 0 91
-44 91 -71 0 -17 8 -19 100 -19 l100 0 0 28 c0 41 -53 144 -91 177 -19 15 -58
39 -88 53 -45 21 -64 24 -125 20 -115 -8 -194 -59 -249 -162 -18 -34 -23 -63
-27 -176 l-5 -135 -347 -3 -348 -2 0 114 c0 98 3 117 20 139 44 56 127 43 157
-25 14 -31 21 -38 38 -34 11 3 53 6 93 6 l72 0 0 33 c-1 74 -73 175 -157 217
-51 26 -164 37 -213 21z"/>
<path d="M7228 5048 l-3 -233 -512 -5 -513 -5 56 -92 55 -93 650 0 649 0 0 95
0 94 -92 3 -93 3 -3 233 -2 232 -95 0 -95 0 -2 -232z"/>
<path d="M2555 4410 c-61 -24 -126 -86 -157 -149 -19 -39 -23 -67 -26 -179
l-4 -133 -132 3 -131 3 -3 228 -2 227 -95 0 -95 0 -2 -227 -3 -228 -409 -3
-408 -2 6 -43 c3 -23 8 -66 12 -94 l7 -53 3522 0 3523 0 6 58 c4 31 9 74 12
94 l6 38 -379 2 -378 3 -3 233 -2 232 -95 0 -95 0 -2 -232 -3 -233 -398 0
-398 0 -132 227 -132 227 -112 1 c-62 0 -113 -2 -113 -4 0 -2 58 -103 129
-224 71 -122 126 -223 123 -226 -3 -3 -214 -6 -469 -6 l-463 0 0 105 c0 59 5
115 12 130 14 31 55 55 93 55 29 0 85 -49 85 -74 0 -14 16 -16 100 -16 l101 0
-7 38 c-15 89 -75 171 -157 214 -35 19 -58 23 -132 23 -80 0 -95 -3 -135 -27
-61 -36 -105 -83 -131 -142 -17 -39 -23 -76 -27 -178 l-5 -128 -346 2 -346 3
0 113 0 114 33 29 c43 39 84 39 123 0 16 -16 29 -37 29 -45 0 -14 16 -16 100
-16 115 0 115 0 81 90 -29 76 -74 125 -146 161 -58 28 -71 31 -137 27 -87 -4
-153 -34 -205 -91 -57 -64 -67 -97 -73 -247 l-5 -135 -350 0 -350 0 -3 85 c-5
139 23 195 98 195 43 0 90 -35 90 -67 0 -23 29 -30 120 -26 l75 3 -1 40 c-1
52 -39 128 -83 167 -19 17 -59 42 -89 56 -46 21 -65 24 -126 20 -115 -8 -194
-59 -249 -162 -18 -34 -23 -63 -27 -176 l-5 -135 -347 -3 -348 -2 0 111 c0 60
5 119 10 130 13 23 61 49 91 49 25 0 89 -61 89 -84 0 -14 15 -16 95 -16 l95 0
0 38 c-1 79 -71 179 -157 222 -66 33 -168 38 -238 10z"/>
<path d="M1150 3449 c0 -20 100 -886 123 -1068 10 -79 16 -96 35 -109 l22 -14
0 606 0 606 -90 0 c-84 0 -90 -1 -90 -21z"/>
<path d="M1620 2786 l0 -684 94 -51 c52 -28 97 -51 100 -51 3 0 6 331 6 735
l0 735 -100 0 -100 0 0 -684z"/>
<path d="M2110 2653 l0 -818 95 -52 95 -51 0 869 0 869 -95 0 -95 0 0 -817z"/>
<path d="M2590 2521 l0 -949 94 -51 c52 -28 97 -51 100 -51 3 0 6 450 6 1000
l0 1000 -100 0 -100 0 0 -949z"/>
<path d="M3080 2388 l0 -1083 95 -52 95 -51 0 1134 0 1134 -95 0 -95 0 0
-1082z"/>
<path d="M3567 3463 c-4 -3 -7 -547 -7 -1208 0 -1132 1 -1203 18 -1217 18 -15
167 -98 177 -98 3 0 5 569 5 1265 l0 1265 -93 0 c-52 0 -97 -3 -100 -7z"/>
<path d="M4050 2123 l0 -1348 89 -47 c49 -27 94 -48 100 -48 8 0 11 379 11
1395 l0 1395 -100 0 -100 0 0 -1347z"/>
<path d="M4542 1989 l3 -1482 46 -25 46 -26 46 27 47 28 0 1479 0 1480 -95 0
-95 0 2 -1481z"/>
<path d="M5020 2069 l0 -1401 88 48 c48 26 93 51 100 57 9 7 12 290 12 1353
l0 1344 -100 0 -100 0 0 -1401z"/>
<path d="M5510 2205 c0 -696 3 -1265 8 -1264 4 0 45 22 92 48 l85 48 3 1217 2
1216 -95 0 -95 0 0 -1265z"/>
<path d="M5997 3463 c-8 -8 -9 -2247 -2 -2255 3 -3 48 18 100 46 l95 51 0
1083 0 1082 -93 0 c-52 0 -97 -3 -100 -7z"/>
<path d="M6480 2470 c0 -550 2 -1000 5 -1000 3 0 48 23 100 52 l95 52 0 948 0
948 -100 0 -100 0 0 -1000z"/>
<path d="M6970 2605 c0 -476 3 -865 6 -865 4 0 47 21 95 47 l89 48 0 817 0
818 -95 0 -95 0 0 -865z"/>
<path d="M7450 2735 c0 -404 2 -735 5 -735 3 0 48 23 100 52 l95 52 0 683 0
683 -100 0 -100 0 0 -735z"/>
<path d="M7940 2865 l0 -605 24 15 c18 12 24 28 29 73 4 31 20 174 37 317 74
633 90 769 90 787 0 16 -9 18 -90 18 l-90 0 0 -605z"/>
</g>
</svg>
