<svg width="26" height="26" preserveAspectratio="xMinYMin" version="1.1" xmlns="http://www.w3.org/2000/svg" xmlns:xlink="http://www.w3.org/1999/xlink">
  <g
    id="S/Icons/edu/white"
    stroke="none"
    stroke-width="1"
    fill="none"
    fill-rule="evenodd"
  >
    <path
      d="M12.5339103,6.18897514 C12.5121453,6.18025059 12.4878551,6.18025059 12.4660901,6.18897514 L1.58517921,10.5506204 C1.5614872,10.5601174 1.54286347,10.5791143 1.53383836,10.6029901 C1.51604093,10.6500729 1.53978141,10.7026687 1.5868642,10.7204661 L12.4677751,14.8334816 C12.4885415,14.8413313 12.511459,14.8413313 12.5322253,14.8334816 L23.4131362,10.7204661 C23.437012,10.711441 23.456009,10.6928173 23.465506,10.6691253 C23.484234,10.6224048 23.4615417,10.5693484 23.4148212,10.5506204 L12.5339103,6.18897514 Z"
      id="Rectangle"
      stroke="#FFFFFF"
      stroke-width="2"
    ></path>
    <path
      d="M19,13 L19,18 C17.5314927,19.3518519 15.3571583,20.0277778 12.4769965,20.0277778 C9.5968348,20.0277778 7.43783596,19.3518519 6,18 L6,13"
      id="Path"
      stroke="#FFFFFF"
      stroke-width="2"
    ></path>
    <path
      d="M23,10.2128751 L23,14.5356988"
      id="Line-12"
      stroke="#FFFFFF"
      stroke-width="2"
    ></path>
    <circle id="Oval" fill="#FFFFFF" cx="23" cy="15" r="2"></circle>
  </g>
</svg>
