<svg width="37" height="40" viewBox="0 0 56 60" preserveAspectratio="xMinYMin" version="1.1" xmlns="http://www.w3.org/2000/svg" xmlns:xlink="http://www.w3.org/1999/xlink">
  <g fill="none" fill-rule="evenodd">
    <path fill="#FFF" d="M27.765 0l-.428.153L.953 9.586 0 9.927l.116 1.007L4.14 45.913l.075.652.573.318L27.148 59.3l.617.342.616-.342 22.36-12.417.573-.318.075-.652 4.025-34.979.116-1.007-.953-.34L28.192.152 27.765 0z"/>
    <g fill="#DD0031">
      <path d="M32.323 32.405a.603.603 0 0 1 .604.605h1.242a1.84 1.84 0 0 0-.54-1.309 1.83 1.83 0 0 0-1.305-.541h-.001a1.85 1.85 0 0 0-1.845 1.851v1.229l1.242-.001V33.01c0-.334.27-.606.603-.606M18.408 12.113H9.397v1.245h9.726zM30.623 23.177h-3.325l.068-.04-1.746-3.039h-1.434l1.77 3.08H20.37v-1.156a.603.603 0 0 1 .604-.606.603.603 0 0 1 .604.606l1.242-.001a1.84 1.84 0 0 0-.542-1.308 1.83 1.83 0 0 0-1.304-.542h-.001c-.493 0-.956.193-1.305.543a1.84 1.84 0 0 0-.54 1.309v1.154H14.7v-1.152c0-.334.27-.606.604-.606.333 0 .604.272.604.606l1.242-.001a1.85 1.85 0 0 0-1.846-1.85 1.85 1.85 0 0 0-1.846 1.852l.001 1.151h-1.653v-3.079h-1.241v3.08H9.397v1.244h21.941l-.715-1.245zM24.537 17.645h-3.23l-1.73-3.01h-1.433l1.73 3.01h-8.07v-3.01h-1.24v3.01H9.396v1.245h15.855zM36.179 28.709h-2.803l.032-.019-1.746-3.039h-1.433l1.757 3.058h-5.94l-.001-1.227a.602.602 0 0 1 .604-.606.603.603 0 0 1 .604.605h1.242a1.84 1.84 0 0 0-.541-1.309 1.831 1.831 0 0 0-1.305-.54c-.494 0-.957.192-1.306.542a1.84 1.84 0 0 0-.54 1.309l.001 1.226h-4.43v-1.224a.603.603 0 0 1 .603-.606c.334 0 .605.271.605.605h1.241a1.85 1.85 0 0 0-1.845-1.85h-.001c-.493 0-.957.193-1.305.543a1.84 1.84 0 0 0-.54 1.308v1.224h-4.43v-1.221c0-.334.27-.606.603-.606.334 0 .605.271.605.605h1.241a1.85 1.85 0 0 0-1.845-1.85h-.001a1.85 1.85 0 0 0-1.845 1.852v1.22h-1.655v-3.01h-1.242v3.01H9.397v1.245h27.497l-.715-1.245zM46.56 24.422v-1.245H32.093l.715 1.245zM44.152 25.7v3.009h-6.526l.715 1.245h8.219v-1.245h-1.167v-3.01z"/>
      <path d="M45.393 34.24v-3.01h-1.241v3.01H39.1l-1.688-2.936H35.98l1.688 2.937h-11.62v-1.227a.603.603 0 0 1 .604-.606.603.603 0 0 1 .604.606l1.242-.002a1.84 1.84 0 0 0-.542-1.308 1.831 1.831 0 0 0-1.304-.541h-.001c-.493 0-.956.193-1.305.543a1.84 1.84 0 0 0-.54 1.308v1.227h-4.43v-1.224a.602.602 0 0 1 .604-.606c.333 0 .604.271.604.605h1.242a1.85 1.85 0 0 0-1.846-1.85c-.494 0-.957.193-1.306.543-.348.35-.54.814-.54 1.308l.001 1.224h-4.43V33.02a.606.606 0 0 1 1.03-.43.603.603 0 0 1 .178.43l1.241-.002a1.84 1.84 0 0 0-.541-1.308 1.83 1.83 0 0 0-1.305-.541 1.85 1.85 0 0 0-1.845 1.851v1.22h-1.687v-2.936h-1.241v2.937H5.359l.143 1.244h44.525l.144-1.244h-4.778zM17.93 37.352v13.912l1.242.69V37.351zM21 37.352v15.617l1.242.69V37.351zM14.86 37.352v12.207l1.241.69V37.351zM11.79 37.352v10.502l1.241.69V37.351zM5.717 37.352l.876 7.616.297.165v-7.781zM27.141 37.352v19.027l.624.346.618-.343v-19.03zM8.72 37.352v8.797l1.24.69v-9.487zM24.071 37.352v17.322l1.241.69V37.352zM45.564 37.352v9.49l1.241-.69v-8.8zM30.212 37.352v18.014l1.241-.689V37.352zM42.493 37.352v11.194l1.242-.689V37.352zM48.634 37.352v7.784l.302-.168.877-7.616zM39.423 37.352v12.9l1.241-.69v-12.21zM33.282 37.352v16.31l1.242-.69v-15.62zM36.352 37.352v14.604l1.242-.689V37.352z"/>
    </g>
  </g>
</svg>
