<svg width="379" height="105" viewBox="0 0 379 105" fill="none" xmlns="http://www.w3.org/2000/svg">
<g clip-path="url(#clip0)">
<path fill-rule="evenodd" clip-rule="evenodd" d="M0 0L41.0563 37.9234V2.89123H52.5492V63.7517L11.5652 25.8284V60.8605H0V0ZM93.4128 39.3208V29.9002H122.085C122.253 34.3093 121.723 38.4775 120.519 42.3807C119.314 46.3079 117.459 49.7533 114.977 52.7168C112.495 55.7044 109.387 58.0415 105.701 59.7522C101.99 61.4628 97.7497 62.3061 92.9309 62.3061C86.9074 62.3061 81.5585 61.0291 76.8842 58.4511C72.21 55.8972 68.5477 52.3073 65.8973 47.7295C63.247 43.1517 61.9218 37.8511 61.9218 31.8518C61.9218 25.8284 63.2711 20.576 65.9937 16.0464C68.6922 11.5168 72.4268 7.99908 77.1493 5.49335C81.8717 2.98761 87.2447 1.73474 93.2682 1.73474C99.1713 1.73474 104.255 2.93942 108.52 5.32469C112.784 7.73405 116.23 10.9385 118.88 14.9621L108.664 20.9614C107.171 18.4798 105.171 16.4318 102.665 14.8417C100.159 13.2515 97.0269 12.4323 93.2682 12.4323C89.7987 12.4323 86.6182 13.2274 83.727 14.7935C80.8598 16.3596 78.5708 18.6003 76.8842 21.4915C75.1976 24.3827 74.3544 27.8522 74.3544 31.8759C74.3544 35.8995 75.1736 39.3931 76.836 42.3807C78.4985 45.3683 80.7393 47.6572 83.5824 49.2955C86.4255 50.9339 89.6541 51.729 93.2441 51.729C97.9907 51.729 101.701 50.5484 104.352 48.1631C107.002 45.802 108.857 42.8385 109.893 39.3208H93.4128ZM166.827 39.8268V60.8364H154.901V2.93942H162.201H166.852H174.465C179.043 2.93942 182.971 3.71042 186.199 5.25241C189.428 6.7944 191.909 8.96283 193.62 11.7577C195.331 14.5525 196.198 17.7811 196.198 21.4674C196.198 25.5392 195.138 29.0569 193.018 32.0204C190.897 34.9598 187.862 37.1042 183.934 38.4293L199.692 60.8364H185.524L171.935 39.8268H166.827ZM166.827 30.3821H173.694C176.778 30.3821 179.236 29.6352 181.067 28.1173C182.898 26.5994 183.814 24.4791 183.814 21.7806C183.814 19.034 182.898 16.8896 181.067 15.3717C179.236 13.8538 176.778 13.1069 173.694 13.1069H166.827V30.3821ZM203.041 31.8759C203.041 27.4667 203.812 23.419 205.354 19.7568C206.896 16.0945 209.064 12.9142 211.811 10.2398C214.582 7.5654 217.811 5.49335 221.545 3.99954C225.28 2.50574 229.328 1.75883 233.689 1.75883C238.098 1.75883 242.17 2.50574 245.88 3.99954C249.591 5.49335 252.819 7.5654 255.614 10.2398C258.409 12.9142 260.553 16.0945 262.071 19.7568C263.589 23.419 264.36 27.4667 264.36 31.8759C264.36 36.2368 263.589 40.2845 262.071 43.995C260.553 47.7295 258.433 50.9339 255.686 53.6806C252.94 56.4032 249.711 58.5234 246.001 60.0413C242.266 61.5592 238.17 62.3061 233.689 62.3061C229.207 62.3061 225.111 61.5592 221.376 60.0413C217.642 58.5234 214.413 56.4032 211.691 53.6806C208.944 50.958 206.824 47.7295 205.306 43.995C203.812 40.2845 203.041 36.2368 203.041 31.8759ZM215.642 31.8759C215.642 35.5622 216.413 38.863 217.955 41.7302C219.497 44.5973 221.642 46.838 224.34 48.4764C227.039 50.1147 230.171 50.9098 233.713 50.9098C237.254 50.9098 240.363 50.0906 243.085 48.4764C245.784 46.838 247.928 44.5973 249.47 41.7302C251.012 38.863 251.783 35.5863 251.783 31.8759C251.783 28.1654 251.036 24.8887 249.542 22.0216C248.049 19.1544 245.952 16.9137 243.254 15.2754C240.531 13.6611 237.351 12.866 233.713 12.866C230.171 12.866 227.063 13.6852 224.34 15.2994C221.642 16.9378 219.497 19.1785 217.955 22.0457C216.413 24.9128 215.642 28.1895 215.642 31.8759ZM284.768 28.9123L281.033 60.8364H268.601L277.227 0.0240936L301.586 37.3451L325.776 0.0240936L334.57 60.8364H321.969L318.235 28.9123L301.586 55.4635L284.768 28.9123ZM353.629 35.0321V50.7412H379V60.8364H353.629H349.653H342.04V2.93942H349.653H353.629H379V13.0106H353.629V25.1778H377.338V35.0321H353.629Z" fill="white"/>
<path fill-rule="evenodd" clip-rule="evenodd" d="M138.083 90.0619L136.397 105H132.108L135.481 79.2439L145.552 95.8926L155.672 79.2439L159.045 105H154.708L153.022 90.1101L145.552 102.735L138.083 90.0619Z" fill="white"/>
<path fill-rule="evenodd" clip-rule="evenodd" d="M172.562 90.0619L170.875 105H166.587L169.96 79.2439L180.031 95.8926L190.151 79.2439L193.524 105H189.187L187.5 90.1101L180.031 102.735L172.562 90.0619Z" fill="white"/>
<path fill-rule="evenodd" clip-rule="evenodd" d="M215.208 80.4727H220.268L212.823 92.2544L220.798 105H215.738L210.462 95.5793L205.041 105H200.005L208.149 92.2544L200.848 80.4727H205.908L210.51 88.7368L215.208 80.4727Z" fill="white"/>
<path fill-rule="evenodd" clip-rule="evenodd" d="M241.302 80.4727H246.362L238.917 92.2544L246.892 105H241.832L236.556 95.5793L231.135 105H226.099L234.243 92.2544L226.942 80.4727H232.002L236.604 88.7368L241.302 80.4727Z" fill="white"/>
</g>
<defs>
<clipPath id="clip0">
<rect width="379" height="105" fill="white"/>
</clipPath>
</defs>
</svg>
