<?xml version="1.0" encoding="utf-8"?>
<!-- Generator: Adobe Illustrator 22.1.0, SVG Export Plug-In . SVG Version: 6.00 Build 0)  -->
<svg version="1.1" id="Livello_1" xmlns="http://www.w3.org/2000/svg" xmlns:xlink="http://www.w3.org/1999/xlink" x="0px" y="0px"
	 viewBox="0 0 99 107" style="enable-background:new 0 0 99 107;" xml:space="preserve">
<style type="text/css">
	.st0{fill:#FFFFFF;}
	.st1{fill:#DD0031;}
</style>
<g>
	<path class="st0" d="M29,0l-0.4,0.2L1,10l-1,0.4l0.1,1l4.2,36.4l0.1,0.7L5,48.7l23.3,12.9L29,62l0.6-0.4L53,48.7l0.6-0.3l0.1-0.7
		l4.2-36.4l0.1-1L57,10L29.4,0.2L29,0z"/>
	<g>
		<path class="st1" d="M33.7,33.7c0.3,0,0.6,0.3,0.6,0.6c0,0,0,0,0,0l1.3,0c0-0.5-0.2-1-0.6-1.4c-0.4-0.4-0.9-0.6-1.4-0.6h0
			c-1.1,0-1.9,0.9-1.9,1.9v1.3h1.3l0-1.3C33.1,34,33.4,33.7,33.7,33.7C33.7,33.7,33.7,33.7,33.7,33.7 M19.2,12.6H9.8v1.3H20
			L19.2,12.6z M32,24.1h-3.5l0.1,0l-1.8-3.2h-1.5l1.8,3.2h-5.8v-1.2c0-0.3,0.3-0.6,0.6-0.6c0,0,0,0,0,0c0.3,0,0.6,0.3,0.6,0.6
			c0,0,0,0,0,0l1.3,0c0-0.5-0.2-1-0.6-1.4c-0.4-0.4-0.9-0.6-1.4-0.6h0c-0.5,0-1,0.2-1.4,0.6c-0.4,0.4-0.6,0.8-0.6,1.4v1.2h-4.6v-1.2
			c0-0.3,0.3-0.6,0.7-0.6c0.3,0,0.6,0.3,0.6,0.6l1.3,0c0-1.1-0.9-1.9-2-1.9c-1,0-1.9,0.9-1.9,1.9v1.2h-1.7v-3.2H11v3.2H9.8v1.3h22.9
			L32,24.1L32,24.1z M25.6,18.3h-3.4l-1.8-3.1h-1.5l1.8,3.1h-8.4v-3.1H11v3.1H9.8v1.3h16.5L25.6,18.3z M37.8,29.8h-2.9l0,0L33,26.7
			h-1.5l1.8,3.2h-6.2l0-1.3c0-0.3,0.3-0.6,0.6-0.6c0,0,0,0,0,0c0.3,0,0.6,0.3,0.6,0.6c0,0,0,0,0,0l1.3,0c0-0.5-0.2-1-0.6-1.4
			c-0.4-0.4-0.9-0.6-1.4-0.6h0c-0.5,0-1,0.2-1.4,0.6c-0.4,0.4-0.6,0.8-0.6,1.4v1.3h-4.6v-1.3c0-0.3,0.3-0.6,0.6-0.6c0,0,0,0,0,0
			c0.3,0,0.6,0.3,0.6,0.6c0,0,0,0,0,0l1.3,0c0-1.1-0.9-1.9-1.9-1.9c-0.5,0-1,0.2-1.4,0.6c-0.4,0.4-0.6,0.8-0.6,1.4v1.3h-4.6v-1.3
			c0-0.3,0.3-0.6,0.6-0.6c0.3,0,0.6,0.3,0.6,0.6l1.3,0c0-1.1-0.9-1.9-2-1.9c-1,0-1.9,0.9-1.9,1.9v1.3h-1.7v-3.1H11v3.1H9.8v1.3h28.7
			L37.8,29.8z M48.6,25.4v-1.3H33.5l0.7,1.3H48.6z M46.1,26.7v3.1h-6.8l0.7,1.3h8.6v-1.3h-1.2v-3.1H46.1z"/>
		<path class="st1" d="M47.4,35.6v-3.1h-1.3v3.1h-5.3l-1.8-3.1h-1.5l1.8,3.1H27.2v-1.3c0-0.3,0.3-0.6,0.6-0.6c0,0,0,0,0,0
			c0.3,0,0.6,0.3,0.6,0.6c0,0,0,0,0,0l1.3,0c0-0.5-0.2-1-0.6-1.4c-0.4-0.4-0.9-0.6-1.4-0.6h0c-0.5,0-1,0.2-1.4,0.6
			c-0.4,0.4-0.6,0.8-0.6,1.4v1.3h-4.6v-1.3c0-0.3,0.3-0.6,0.6-0.6c0,0,0,0,0,0c0.3,0,0.6,0.3,0.6,0.6l1.3,0c0-1.1-0.9-1.9-1.9-1.9
			c-0.5,0-1,0.2-1.4,0.6c-0.4,0.4-0.6,0.8-0.6,1.4v1.3h-4.6v-1.3c0-0.3,0.3-0.6,0.6-0.6s0.6,0.3,0.6,0.6l0,0h1.3
			c0-0.5-0.2-1-0.6-1.4c-0.4-0.4-0.9-0.6-1.4-0.6h0c-1.1,0-1.9,0.9-1.9,1.9l0,1.3h-1.8v-3.1H11v3.1H5.6l0.2,1.3h46.5l0.2-1.3
			C52.4,35.6,47.4,35.6,47.4,35.6z M18.7,38.8v14.5L20,54V38.8H18.7z M21.9,38.8v16.2l1.3,0.7v-17L21.9,38.8z M15.5,38.8v12.7
			l1.3,0.7V38.8H15.5z M12.3,38.8v10.9l1.3,0.7V38.8H12.3z M6,38.8l0.9,7.9l0.3,0.2v-8.1H6z M28.3,38.8v19.8L29,59l0.6-0.4V38.8
			H28.3z M9.1,38.8V48l1.3,0.7v-9.9H9.1z M25.1,38.8v18l1.3,0.7V38.8H25.1z M47.6,38.8v9.9l1.3-0.7v-9.1L47.6,38.8z M31.5,38.8v18.7
			l1.3-0.7v-18L31.5,38.8z M44.4,38.8v11.6l1.3-0.7V38.8L44.4,38.8z M50.8,38.8v8.1l0.3-0.2l0.9-7.9H50.8z M41.2,38.8v13.4l1.3-0.7
			V38.8H41.2z M34.7,38.8v17l1.3-0.7V38.8H34.7z M37.9,38.8V54l1.3-0.7V38.8H37.9z"/>
	</g>
	<path class="st0" d="M3.9,77.3l10.3,9.5V78h2.9v15.3L6.8,83.8v8.8H3.9V77.3L3.9,77.3z M27.3,87.2v-2.4h7.2c0,1.1-0.1,2.1-0.4,3.1
		c-0.3,0.9-0.8,1.8-1.4,2.6c-0.6,0.8-1.4,1.4-2.3,1.8c-0.9,0.4-2,0.6-3.2,0.6c-1.5,0-2.9-0.3-4-1c-1.2-0.6-2.1-1.6-2.8-2.7
		c-0.7-1.1-1-2.5-1-4c0-1.5,0.3-2.8,1-4c0.7-1.1,1.6-2,2.8-2.6c1.2-0.6,2.5-0.9,4-0.9c1.5,0,2.8,0.3,3.8,0.9c1,0.6,1.9,1.4,2.6,2.4
		l-2.6,1.5c-0.4-0.6-0.9-1.1-1.5-1.5c-0.6-0.4-1.4-0.6-2.4-0.6c-0.8,0-1.7,0.2-2.4,0.6c-0.7,0.4-1.3,1-1.7,1.7
		c-0.4,0.7-0.6,1.6-0.6,2.6c0,1,0.2,1.9,0.6,2.6c0.4,0.7,1,1.3,1.7,1.7c0.7,0.4,1.5,0.6,2.4,0.6c1.2,0,2.1-0.3,2.8-0.9
		c0.7-0.6,1.1-1.4,1.4-2.2L27.3,87.2L27.3,87.2z M45.8,87.3v5.3h-3V78.1h4.9c1.2,0,2.1,0.2,2.9,0.6s1.4,0.9,1.9,1.6
		c0.4,0.7,0.6,1.5,0.6,2.4c0,1-0.3,1.9-0.8,2.6c-0.5,0.7-1.3,1.3-2.3,1.6l4,5.6h-3.6L47,87.3L45.8,87.3L45.8,87.3z M45.8,84.9h1.7
		c0.8,0,1.4-0.2,1.8-0.6c0.5-0.4,0.7-0.9,0.7-1.6c0-0.7-0.2-1.2-0.7-1.6c-0.5-0.4-1.1-0.6-1.8-0.6h-1.7V84.9z M54.9,85.3
		c0-1.1,0.2-2.1,0.6-3c0.4-0.9,0.9-1.7,1.6-2.4c0.7-0.7,1.5-1.2,2.4-1.6c0.9-0.4,2-0.6,3-0.6c1.1,0,2.1,0.2,3.1,0.6
		c0.9,0.4,1.7,0.9,2.4,1.6c0.7,0.7,1.2,1.5,1.6,2.4c0.4,0.9,0.6,1.9,0.6,3c0,1.1-0.2,2.1-0.6,3c-0.4,0.9-0.9,1.7-1.6,2.4
		c-0.7,0.7-1.5,1.2-2.4,1.6c-0.9,0.4-2,0.6-3.1,0.6s-2.2-0.2-3.1-0.6c-0.9-0.4-1.7-0.9-2.4-1.6c-0.7-0.7-1.2-1.5-1.6-2.4
		C55,87.4,54.9,86.4,54.9,85.3L54.9,85.3z M58,85.3c0,0.9,0.2,1.8,0.6,2.5c0.4,0.7,0.9,1.3,1.6,1.7c0.7,0.4,1.5,0.6,2.3,0.6
		c0.9,0,1.7-0.2,2.3-0.6c0.7-0.4,1.2-1,1.6-1.7c0.4-0.7,0.6-1.5,0.6-2.5c0-0.9-0.2-1.8-0.6-2.5c-0.4-0.7-0.9-1.3-1.6-1.7
		c-0.7-0.4-1.5-0.6-2.4-0.6c-0.9,0-1.7,0.2-2.3,0.6c-0.7,0.4-1.2,1-1.6,1.7C58.2,83.6,58,84.4,58,85.3z M75.4,84.6l-0.9,8h-3.1
		l2.2-15.3l6.1,9.4l6.1-9.4l2.2,15.3h-3.2l-0.9-8l-4.2,6.7L75.4,84.6L75.4,84.6z M92.6,86.1v3.9H99v2.5h-9.3V78.1H99v2.5h-6.4v3.1
		h5.9v2.5H92.6L92.6,86.1z"/>
</g>
</svg>
