<svg width="403" height="220" viewBox="0 0 403 220" fill="none" xmlns="http://www.w3.org/2000/svg">
<path fill-rule="evenodd" clip-rule="evenodd" d="M0.839111 108.164L44.4016 148.404V111.257H56.5961V175.836L13.1102 135.596V172.768H0.839111V108.164ZM99.9541 149.912V139.916H130.376C130.555 144.595 129.993 149.018 128.715 153.159C127.436 157.326 125.468 160.982 122.835 164.127C120.201 167.297 116.904 169.777 112.992 171.592C109.055 173.407 104.556 174.302 99.4428 174.302C93.0516 174.302 87.3762 172.947 82.4166 170.212C77.457 167.502 73.5712 163.692 70.759 158.835C67.9469 153.977 66.5408 148.353 66.5408 141.987C66.5408 135.596 67.9725 130.022 70.8613 125.216C73.7245 120.41 77.6871 116.677 82.6978 114.018C87.7085 111.359 93.4095 110.03 99.8007 110.03C106.064 110.03 111.458 111.308 115.983 113.839C120.508 116.396 124.164 119.796 126.976 124.065L116.162 130.38C114.577 127.747 112.455 125.574 109.797 123.886C107.138 122.199 103.814 121.33 99.8263 121.33C96.1449 121.33 92.7704 122.174 89.7026 123.835C86.6604 125.497 84.2317 127.875 82.4422 130.943C80.6526 134.01 79.7579 137.692 79.7579 141.961C79.7579 146.231 80.6271 149.938 82.391 153.108C84.155 156.278 86.5325 158.707 89.5492 160.445C92.5658 162.184 95.9915 163.028 99.8007 163.028C104.837 163.028 108.774 161.775 111.586 159.244C114.398 156.738 116.367 153.594 117.466 149.861H99.9541V149.912ZM177.85 150.424V172.717H165.196V111.283H172.942H177.876H185.954C190.812 111.283 194.979 112.101 198.404 113.737C201.83 115.373 204.463 117.674 206.278 120.64C208.093 123.605 209.014 127.031 209.014 130.943C209.014 135.263 207.889 138.996 205.639 142.14C203.39 145.259 200.168 147.535 196.001 148.941L212.721 172.717H197.689L183.27 150.424H177.85ZM177.85 140.427H185.136C188.409 140.427 191.016 139.635 192.959 138.024C194.902 136.414 195.873 134.164 195.873 131.301C195.873 128.386 194.902 126.111 192.959 124.5C191.016 122.889 188.409 122.097 185.136 122.097H177.85V140.427ZM216.3 142.013C216.3 137.334 217.118 133.039 218.754 129.153C220.39 125.267 222.691 121.892 225.605 119.055C228.545 116.217 231.971 114.018 235.934 112.433C239.896 110.848 244.191 110.055 248.818 110.055C253.497 110.055 257.817 110.848 261.754 112.433C265.691 114.018 269.117 116.217 272.082 119.055C275.048 121.892 277.323 125.267 278.934 129.153C280.544 133.039 281.362 137.334 281.362 142.013C281.362 146.64 280.544 150.935 278.934 154.872C277.323 158.835 275.073 162.235 272.159 165.15C269.245 168.038 265.819 170.288 261.882 171.899C257.919 173.509 253.573 174.302 248.818 174.302C244.063 174.302 239.717 173.509 235.755 171.899C231.792 170.288 228.366 168.038 225.478 165.15C222.563 162.261 220.313 158.835 218.703 154.872C217.092 150.909 216.3 146.64 216.3 142.013ZM229.645 142.013C229.645 145.924 230.463 149.427 232.099 152.469C233.735 155.511 236.01 157.889 238.874 159.627C241.737 161.366 245.06 162.209 248.818 162.209C252.576 162.209 255.874 161.34 258.763 159.627C261.626 157.889 263.902 155.511 265.538 152.469C267.174 149.427 267.992 145.95 267.992 142.013C267.992 138.075 267.199 134.598 265.614 131.556C264.029 128.514 261.805 126.136 258.942 124.398C256.079 122.659 252.704 121.816 248.818 121.816C245.06 121.816 241.762 122.685 238.874 124.398C236.01 126.136 233.735 128.514 232.099 131.556C230.463 134.598 229.645 138.075 229.645 142.013ZM302.99 138.842L299.028 172.717H285.836L294.988 108.189L320.834 147.79L346.502 108.189L355.833 172.717H342.462L338.5 138.842L320.834 167.016L302.99 138.842ZM376.08 145.336V162.005H403V172.717H376.08H371.862H363.783V111.283H371.862H376.08H403V121.995H376.08V134.905H401.236V145.362H376.08V145.336Z" fill="#DD0031"/>
<path fill-rule="evenodd" clip-rule="evenodd" d="M202.126 0L201.473 0.235722L160.713 14.7417L159.244 15.2675L159.426 16.8269L165.645 70.626L165.754 71.6414L166.642 72.131L201.183 91.2245L202.126 91.7503L203.087 91.2245L237.628 72.131L238.499 71.6414L238.626 70.626L244.845 16.8269L245.026 15.2675L243.539 14.7417L202.797 0.235722L202.126 0Z" fill="#DD0031"/>
<path fill-rule="evenodd" clip-rule="evenodd" d="M209.173 49.8506C209.427 49.8506 209.663 49.9413 209.826 50.1226C210.007 50.3039 210.098 50.5396 210.098 50.7754H212.02C212.02 50.0138 211.73 49.3066 211.186 48.7626C210.642 48.2187 209.935 47.9286 209.173 47.9286C207.596 47.9286 206.326 49.216 206.326 50.7754V52.6611H208.248V50.7754C208.23 50.2676 208.665 49.8506 209.173 49.8506Z" fill="#F9F9F9"/>
<path fill-rule="evenodd" clip-rule="evenodd" d="M187.669 18.6265H173.761V20.5485H188.775L187.669 18.6265Z" fill="#F9F9F9"/>
<path fill-rule="evenodd" clip-rule="evenodd" d="M206.544 35.6529H201.413L201.521 35.5985L198.82 30.9203H196.608L199.346 35.6529H190.715V33.8759C190.715 33.622 190.805 33.3863 190.987 33.2231C191.168 33.0418 191.404 32.9511 191.64 32.9511C191.893 32.9511 192.129 33.0418 192.292 33.2231C192.474 33.4044 192.564 33.6402 192.564 33.8759H194.486C194.486 33.1143 194.196 32.4072 193.652 31.8632C193.126 31.3192 192.401 31.0291 191.64 31.0291C190.878 31.0291 190.171 31.3192 189.627 31.8632C189.083 32.4072 188.793 33.1143 188.793 33.8759V35.6529H181.957V33.8759C181.957 33.3682 182.374 32.9511 182.882 32.9511C183.389 32.9511 183.807 33.3682 183.807 33.8759H185.729C185.729 32.2984 184.441 31.0291 182.882 31.0291C181.304 31.0291 180.035 32.3165 180.035 33.8759V35.6529H177.479V30.9203H175.557V35.6529H173.761V37.5749H207.65L206.544 35.6529Z" fill="#F9F9F9"/>
<path fill-rule="evenodd" clip-rule="evenodd" d="M197.152 27.1487H192.147L189.482 22.5068H187.27L189.935 27.1487H177.479V22.5068H175.557V27.1487H173.761V29.0526H198.24L197.152 27.1487Z" fill="#F9F9F9"/>
<path fill-rule="evenodd" clip-rule="evenodd" d="M215.12 44.157H210.787L210.841 44.1207L208.139 39.4426H205.927L208.647 44.1389H199.472V42.2531C199.472 41.9992 199.563 41.7635 199.744 41.6003C199.926 41.419 200.161 41.3283 200.397 41.3283C200.651 41.3283 200.887 41.419 201.05 41.6003C201.231 41.7816 201.322 42.0174 201.322 42.2531H203.244C203.244 41.4915 202.954 40.7844 202.41 40.2404C201.866 39.6964 201.159 39.4063 200.397 39.4063C199.636 39.4063 198.929 39.6964 198.385 40.2404C197.841 40.7844 197.55 41.4915 197.55 42.2531V44.1389H190.715V42.2531C190.715 41.9992 190.805 41.7635 190.987 41.6003C191.168 41.419 191.404 41.3283 191.64 41.3283C192.147 41.3283 192.564 41.7454 192.564 42.2531H194.486C194.486 40.6756 193.199 39.4063 191.64 39.4063C190.878 39.4063 190.171 39.6964 189.627 40.2404C189.083 40.7844 188.793 41.4915 188.793 42.2531V44.1389H181.957V42.2531C181.957 41.7454 182.374 41.3283 182.882 41.3283C183.389 41.3283 183.807 41.7454 183.807 42.2531H185.729C185.729 40.6756 184.441 39.4063 182.882 39.4063C181.304 39.4063 180.035 40.6937 180.035 42.2531V44.1389H177.479V39.5332H175.557V44.157H173.761V46.079H216.244L215.12 44.157Z" fill="#F9F9F9"/>
<path fill-rule="evenodd" clip-rule="evenodd" d="M231.167 37.5749V35.6529H208.81L209.916 37.5749H231.167Z" fill="#F9F9F9"/>
<path fill-rule="evenodd" clip-rule="evenodd" d="M227.45 39.5332V44.157H217.369L218.475 46.079H231.167V44.157H229.354V39.5332H227.45Z" fill="#F9F9F9"/>
<path fill-rule="evenodd" clip-rule="evenodd" d="M229.354 52.6793V48.0373H227.432V52.6611H219.635L217.024 48.1461H214.812L217.423 52.6611H199.472V50.7754C199.472 50.5215 199.563 50.2858 199.744 50.1226C199.926 49.9413 200.161 49.8506 200.397 49.8506C200.651 49.8506 200.887 49.9413 201.05 50.1226C201.231 50.3039 201.322 50.5396 201.322 50.7754H203.244C203.244 50.0138 202.954 49.3066 202.41 48.7626C201.866 48.2187 201.159 47.9286 200.397 47.9286C199.636 47.9286 198.928 48.2187 198.385 48.7626C197.841 49.3066 197.55 50.0138 197.55 50.7754V52.6611H190.715V50.7754C190.715 50.5215 190.805 50.2858 190.987 50.1226C191.168 49.9413 191.404 49.8506 191.639 49.8506C192.147 49.8506 192.564 50.2676 192.564 50.7754H194.486C194.486 49.1978 193.199 47.9286 191.639 47.9286C190.878 47.9286 190.171 48.2187 189.627 48.7626C189.083 49.3066 188.793 50.0138 188.793 50.7754V52.6611H181.957V50.7754C181.957 50.2676 182.374 49.8506 182.882 49.8506C183.136 49.8506 183.371 49.9413 183.535 50.1226C183.716 50.3039 183.806 50.5396 183.806 50.7754H185.728C185.728 50.0138 185.438 49.3066 184.894 48.7626C184.35 48.2187 183.643 47.9286 182.882 47.9286C181.304 47.9286 180.035 49.216 180.035 50.7754V52.6611H177.424V48.1643H175.502V52.6793H167.524L167.742 54.6013H236.516L236.733 52.6793H229.354Z" fill="#F9F9F9"/>
<path fill-rule="evenodd" clip-rule="evenodd" d="M186.943 57.4662V78.8626L188.847 79.9324V57.4662H186.943Z" fill="#F9F9F9"/>
<path fill-rule="evenodd" clip-rule="evenodd" d="M191.676 57.4662V81.4918L193.598 82.5434V57.4662H191.676Z" fill="#F9F9F9"/>
<path fill-rule="evenodd" clip-rule="evenodd" d="M182.193 57.4662V76.2333L184.115 77.3032V57.4662H182.193Z" fill="#F9F9F9"/>
<path fill-rule="evenodd" clip-rule="evenodd" d="M177.46 57.4662V73.6223L179.364 74.674V57.4662H177.46Z" fill="#F9F9F9"/>
<path fill-rule="evenodd" clip-rule="evenodd" d="M168.068 57.4662L169.428 69.1798L169.881 69.4337V57.4662H168.068Z" fill="#F9F9F9"/>
<path fill-rule="evenodd" clip-rule="evenodd" d="M201.159 57.4662V86.7321L202.138 87.2579L203.081 86.7321V57.4662H201.159Z" fill="#F9F9F9"/>
<path fill-rule="evenodd" clip-rule="evenodd" d="M172.71 57.4662V70.9931L174.632 72.0629V57.4662H172.71Z" fill="#F9F9F9"/>
<path fill-rule="evenodd" clip-rule="evenodd" d="M196.426 57.4662V84.1028L198.348 85.1727V57.4662H196.426Z" fill="#F9F9F9"/>
<path fill-rule="evenodd" clip-rule="evenodd" d="M229.626 57.4662V72.0629L231.548 70.9931V57.4662H229.626Z" fill="#F9F9F9"/>
<path fill-rule="evenodd" clip-rule="evenodd" d="M205.909 57.4662V85.1727L207.831 84.121V57.4662H205.909Z" fill="#F9F9F9"/>
<path fill-rule="evenodd" clip-rule="evenodd" d="M224.875 57.4662V74.674L226.797 73.6223V57.4662H224.875Z" fill="#F9F9F9"/>
<path fill-rule="evenodd" clip-rule="evenodd" d="M234.358 57.4662V69.4337L234.83 69.1798L236.189 57.4662H234.358Z" fill="#F9F9F9"/>
<path fill-rule="evenodd" clip-rule="evenodd" d="M220.143 57.4662V77.3032L222.065 76.2515V57.4662H220.143Z" fill="#F9F9F9"/>
<path fill-rule="evenodd" clip-rule="evenodd" d="M210.66 57.4662V82.5434L212.564 81.4918V57.4662H210.66Z" fill="#F9F9F9"/>
<path fill-rule="evenodd" clip-rule="evenodd" d="M215.392 57.4662V79.9324L217.314 78.8626V57.4662H215.392Z" fill="#F9F9F9"/>
<path fill-rule="evenodd" clip-rule="evenodd" d="M147.351 203.754L145.562 219.604H141.011L144.59 192.249L155.276 209.915L166.014 192.249L169.593 219.604H165.017L163.227 203.779L155.276 217.176L147.351 203.754Z" fill="#DD0031"/>
<path fill-rule="evenodd" clip-rule="evenodd" d="M183.935 203.754L182.145 219.604H177.595L181.174 192.249L191.86 209.915L202.597 192.249L206.176 219.604H201.6L199.81 203.779L191.86 217.176L183.935 203.754Z" fill="#DD0031"/>
<path fill-rule="evenodd" clip-rule="evenodd" d="M229.184 193.553H234.553L226.653 206.055L235.115 219.604H229.747L224.174 209.583L218.396 219.604H213.053L221.719 206.055L213.948 193.553H219.316L224.199 202.348L229.184 193.553Z" fill="#DD0031"/>
<path fill-rule="evenodd" clip-rule="evenodd" d="M256.871 193.553H262.24L254.34 206.055L262.802 219.604H257.434L251.86 209.583L246.083 219.604H240.74L249.406 206.055L241.635 193.553H247.003L251.886 202.348L256.871 193.553Z" fill="#DD0031"/>
</svg>
