<?xml version="1.0" encoding="utf-8"?>
<svg version="1.1" id="Livello_1" xmlns="http://www.w3.org/2000/svg" xmlns:xlink="http://www.w3.org/1999/xlink" x="0px" y="0px"
	 viewBox="0 0 379 105" style="enable-background:new 0 0 379 105;" xml:space="preserve">
<style type="text/css">
	.st0{clip-path:url(#SVGID_2_);}
	.st1{fill:#FFFFFF;}
	.st2{fill:none;stroke:#FFFFFF;stroke-width:5;stroke-miterlimit:10;}
</style>
<g>
	<defs>
		<rect id="SVGID_1_" width="379" height="105"/>
	</defs>
	<clipPath id="SVGID_2_">
		<use xlink:href="#SVGID_1_"  style="overflow:visible;"/>
	</clipPath>
	<g class="st0">
		<path class="st1" d="M0,0l41.1,37.9v-35h11.5v60.9l-41-37.9v35H0V0z M93.4,39.3v-9.4h28.7c0.2,4.4-0.4,8.6-1.6,12.5
			c-1.2,3.9-3.1,7.4-5.5,10.3c-2.5,3-5.6,5.3-9.3,7c-3.7,1.7-8,2.6-12.8,2.6c-6,0-11.4-1.3-16-3.9c-4.7-2.6-8.3-6.1-11-10.7
			c-2.7-4.6-4-9.9-4-15.9c0-6,1.3-11.3,4.1-15.8c2.7-4.5,6.4-8,11.2-10.6C81.9,3,87.2,1.7,93.3,1.7c5.9,0,11,1.2,15.3,3.6
			c4.3,2.4,7.7,5.6,10.4,9.6l-10.2,6c-1.5-2.5-3.5-4.5-6-6.1c-2.5-1.6-5.6-2.4-9.4-2.4c-3.5,0-6.7,0.8-9.5,2.4
			c-2.9,1.6-5.2,3.8-6.8,6.7s-2.5,6.4-2.5,10.4c0,4,0.8,7.5,2.5,10.5c1.7,3,3.9,5.3,6.7,6.9c2.8,1.6,6.1,2.4,9.7,2.4
			c4.7,0,8.5-1.2,11.1-3.6c2.7-2.4,4.5-5.3,5.5-8.8H93.4z M166.8,39.8v21h-11.9V2.9h7.3h4.7h7.6c4.6,0,8.5,0.8,11.7,2.3
			c3.2,1.5,5.7,3.7,7.4,6.5c1.7,2.8,2.6,6,2.6,9.7c0,4.1-1.1,7.6-3.2,10.6c-2.1,2.9-5.2,5.1-9.1,6.4l15.8,22.4h-14.2l-13.6-21H166.8
			z M166.8,30.4h6.9c3.1,0,5.5-0.7,7.4-2.3c1.8-1.5,2.7-3.6,2.7-6.3c0-2.7-0.9-4.9-2.7-6.4c-1.8-1.5-4.3-2.3-7.4-2.3h-6.9V30.4z
			 M203,31.9c0-4.4,0.8-8.5,2.3-12.1c1.5-3.7,3.7-6.8,6.5-9.5c2.8-2.7,6-4.7,9.7-6.2c3.7-1.5,7.8-2.2,12.1-2.2
			c4.4,0,8.5,0.7,12.2,2.2c3.7,1.5,6.9,3.6,9.7,6.2s4.9,5.9,6.5,9.5c1.5,3.7,2.3,7.7,2.3,12.1c0,4.4-0.8,8.4-2.3,12.1
			c-1.5,3.7-3.6,6.9-6.4,9.7c-2.7,2.7-6,4.8-9.7,6.4c-3.7,1.5-7.8,2.3-12.3,2.3c-4.5,0-8.6-0.7-12.3-2.3c-3.7-1.5-7-3.6-9.7-6.4
			c-2.7-2.7-4.9-6-6.4-9.7C203.8,40.3,203,36.2,203,31.9z M215.6,31.9c0,3.7,0.8,7,2.3,9.9c1.5,2.9,3.7,5.1,6.4,6.7
			c2.7,1.6,5.8,2.4,9.4,2.4c3.5,0,6.7-0.8,9.4-2.4c2.7-1.6,4.8-3.9,6.4-6.7c1.5-2.9,2.3-6.1,2.3-9.9c0-3.7-0.7-7-2.2-9.9
			c-1.5-2.9-3.6-5.1-6.3-6.7c-2.7-1.6-5.9-2.4-9.5-2.4c-3.5,0-6.6,0.8-9.4,2.4c-2.7,1.6-4.8,3.9-6.4,6.7
			C216.4,24.9,215.6,28.2,215.6,31.9z M284.8,28.9L281,60.8h-12.4L277.2,0l24.4,37.3L325.8,0l8.8,60.8H322l-3.7-31.9l-16.6,26.6
			L284.8,28.9z M353.6,35v15.7H379v10.1h-25.4h-4H342V2.9h7.6h4H379V13h-25.4v12.2h23.7V35H353.6z"/>
		<path class="st1" d="M138.1,90.1l-1.7,14.9h-4.3l3.4-25.8l10.1,16.6l10.1-16.6L159,105h-4.3L153,90.1l-7.5,12.6L138.1,90.1z"/>
		<path class="st1" d="M172.6,90.1l-1.7,14.9h-4.3l3.4-25.8L180,95.9l10.1-16.6l3.4,25.8h-4.3l-1.7-14.9l-7.5,12.6L172.6,90.1z"/>
		<path class="st1" d="M215.2,80.5h5.1l-7.4,11.8l8,12.7h-5.1l-5.3-9.4L205,105h-5l8.1-12.7l-7.3-11.8h5.1l4.6,8.3L215.2,80.5z"/>
		<path class="st1" d="M241.3,80.5h5.1l-7.4,11.8l8,12.7h-5.1l-5.3-9.4l-5.4,9.4h-5l8.1-12.7l-7.3-11.8h5.1l4.6,8.3L241.3,80.5z"/>
	</g>
</g>
<line class="st2" x1="254" y1="79" x2="254" y2="105"/>
</svg>
